:SAMPLES-PER-SECOND 30
:FRAME-RANGE 1-2009
:FULLY-SPECIFIED
:DEGREES
691
root  20.4808 38.5242 -140.567 5.03102 -16.6503 4.98566
RightUpLeg  -0.871502 19.6001 -0.701157
RightLeg  24.7906 11.1657 5.37301
RightFoot  -21.0109 -1.1046 -11.3391
RightToes  2.96424e-010 1.2921e-014 -6.02303e-014
Spine  -1.83481 -5.12625 -6.47888
Spine1  6.97818 -6.22344 3.19652
HEad  25.4958 -48.6452 1.03136
LeftShoulder1  1.47892 -2.15755 -20.923
LeftArm  -1.94709 12.8783 -46.6474
LeftForeArm  30.3685 -2.93128 -12.4227
LeftHand  -0.0574392 4.38875 4.35564
RightShoulder  0.742511 -1.11054 27.6374
RightArm  -58.0724 6.53904 33.1681
RightForeArm  23.0399 29.4526 5.12642
RightHand  0.518618 6.26027 4.81482
LeftUpLeg  -27.7494 -9.73263 -0.708379
LeftLeg  15.1859 2.084 2.57046
LeftFoot  1.9178 0.840221 -7.32365
LeftToes  -1.2485e-010 1.20979e-011 -1.0929e-011
692
root  20.5925 38.4303 -139.529 4.6575 -18.6391 5.36307
RightUpLeg  -1.15367 21.0191 -1.43848
RightLeg  28.7813 11.4933 6.54893
RightFoot  -20.8402 -1.04131 -10.8023
RightToes  2.96424e-010 1.2921e-014 -6.02303e-014
Spine  -1.8911 -4.85422 -6.91839
Spine1  7.28174 -5.84147 2.64494
HEad  26.4269 -48.1181 1.37402
LeftShoulder1  1.51347 -2.2519 -21.0966
LeftArm  -2.46308 12.9596 -46.131
LeftForeArm  30.4702 -2.09331 -12.4346
LeftHand  -0.0687107 4.01317 4.26513
RightShoulder  0.802899 -0.92021 27.4914
RightArm  -57.6319 6.44287 32.8146
RightForeArm  25.8659 27.1987 4.46165
RightHand  0.571334 7.04389 4.96013
LeftUpLeg  -28.1347 -12.5317 -0.282177
LeftLeg  19.3942 6.30515 2.9397
LeftFoot  -0.132423 0.529618 -5.38804
LeftToes  -1.2485e-010 1.20979e-011 -1.0929e-011
693
root  20.6548 38.4735 -138.438 4.32729 -19.9575 5.04472
RightUpLeg  -1.15419 21.399 -1.5855
RightLeg  32.3226 12.7478 8.34092
RightFoot  -18.9142 -0.75731 -9.4881
RightToes  2.96424e-010 1.2921e-014 -6.02303e-014
Spine  -2.25425 -4.81711 -6.55707
Spine1  8.05302 -5.67725 1.83868
HEad  27.6259 -46.6543 1.0814
LeftShoulder1  1.51359 -2.23694 -21.1773
LeftArm  -2.92764 12.6737 -46.0198
LeftForeArm  31.112 -0.77373 -12.4628
LeftHand  -0.0516605 4.49299 4.00615
RightShoulder  0.8398 -0.832097 27.8096
RightArm  -54.699 5.55149 32.6747
RightForeArm  23.778 26.125 4.3384
RightHand  0.521657 6.69955 4.64516
LeftUpLeg  -26.9334 -12.7116 -0.87552
LeftLeg  21.4461 7.3883 3.52666
LeftFoot  -1.61493 0.286688 -3.25567
LeftToes  -1.2485e-010 1.20979e-011 -1.0929e-011
694
root  20.7034 38.4328 -137.468 4.28253 -21.9223 5.40109
RightUpLeg  -4.0762 19.3997 -4.14627
RightLeg  39.1806 16.5505 13.7599
RightFoot  -16.2696 -0.410042 -6.96591
RightToes  2.96424e-010 1.2921e-014 -6.02303e-014
Spine  -2.39609 -4.64798 -7.37439
Spine1  8.11269 -5.46099 1.31985
HEad  28.6832 -44.2511 0.233886
LeftShoulder1  1.44145 -2.00229 -21.0139
LeftArm  -3.54577 13.0848 -46.2287
LeftForeArm  31.7201 -0.128245 -12.3428
LeftHand  -0.0425198 4.75659 3.70881
RightShoulder  0.861998 -0.777075 27.9618
RightArm  -52.6959 5.40914 32.647
RightForeArm  23.9694 25.2487 4.13916
RightHand  0.342654 6.12938 3.1099
LeftUpLeg  -26.3133 -12.7932 -1.91358
LeftLeg  23.3796 8.96717 4.56911
LeftFoot  -3.69698 0.179466 -2.35375
LeftToes  -1.2485e-010 1.20979e-011 -1.0929e-011
695
root  20.7224 38.4181 -136.547 4.2774 -23.375 5.79897
RightUpLeg  -7.70587 17.9745 -6.65905
RightLeg  46.5477 18.7468 19.749
RightFoot  -12.9532 -0.0701286 1.25083
RightToes  2.96424e-010 1.2921e-014 -6.02303e-014
Spine  -2.08653 -4.66169 -8.58015
Spine1  7.73067 -5.58561 1.52865
HEad  28.7945 -42.1063 -0.21474
LeftShoulder1  1.38816 -1.79598 -21.07
LeftArm  -3.6722 13.3526 -46.2615
LeftForeArm  31.8522 0.24408 -12.3188
LeftHand  -0.0422809 4.75248 3.63126
RightShoulder  0.885844 -0.701927 27.8999
RightArm  -52.8089 5.28143 32.9553
RightForeArm  26.2513 24.4781 3.85572
RightHand  0.201825 5.60328 1.80614
LeftUpLeg  -25.4676 -12.4951 -3.08097
LeftLeg  24.5608 9.82551 5.22075
LeftFoot  -5.62674 0.133575 -1.99892
LeftToes  -1.2485e-010 1.20979e-011 -1.0929e-011
696
root  20.709 38.3994 -135.708 4.30072 -24.2462 6.06696
RightUpLeg  -11.9966 16.9418 -8.51763
RightLeg  54.1234 18.1277 24.5844
RightFoot  -8.86797 -0.279729 10.1329
RightToes  2.96424e-010 1.2921e-014 -6.02303e-014
Spine  -1.76012 -4.77861 -9.72427
Spine1  7.87785 -5.84567 1.7215
HEad  30.0404 -42.468 -1.28267
LeftShoulder1  1.44928 -2.0401 -20.9655
LeftArm  -3.69087 12.9016 -46.3926
LeftForeArm  31.689 0.740222 -12.3439
LeftHand  -0.0346018 5.04826 3.6901
RightShoulder  0.899289 -0.65449 27.7995
RightArm  -53.9475 5.58417 33.0766
RightForeArm  28.8272 22.7791 3.24062
RightHand  -0.0395032 4.78359 -0.747059
LeftUpLeg  -24.6355 -11.6083 -4.20808
LeftLeg  25.458 9.70451 5.35734
LeftFoot  -7.32405 0.0932434 -1.40411
LeftToes  -1.2485e-010 1.20979e-011 -1.0929e-011
697
root  20.6677 38.3953 -134.929 4.35539 -24.8765 6.03394
RightUpLeg  -16.3415 15.7641 -9.47112
RightLeg  60.1036 15.1334 25.9014
RightFoot  -4.32658 -1.02517 16.1428
RightToes  2.96424e-010 1.2921e-014 -6.02303e-014
Spine  -0.885674 -4.75141 -10.6127
Spine1  7.51589 -6.01905 2.0924
HEad  29.3521 -41.4862 -0.849869
LeftShoulder1  1.53839 -2.33004 -21.166
LeftArm  -3.06471 11.0315 -46.189
LeftForeArm  31.317 2.63717 -12.5963
LeftHand  -0.0362602 5.00975 3.96586
RightShoulder  0.888375 -0.697709 27.9442
RightArm  -53.5572 6.18528 32.5865
RightForeArm  31.1187 20.3289 1.79016
RightHand  -0.416202 3.02195 -5.97103
LeftUpLeg  -23.6903 -10.8806 -4.96477
LeftLeg  26.121 9.5514 5.44708
LeftFoot  -8.85762 0.073563 -0.939503
LeftToes  -1.2485e-010 1.20979e-011 -1.0929e-011
